<?xml version="1.0" standalone="no"?>
<!DOCTYPE svg PUBLIC "-//W3C//DTD SVG 20010904//EN"
 "http://www.w3.org/TR/2001/REC-SVG-20010904/DTD/svg10.dtd">
<svg version="1.0" xmlns="http://www.w3.org/2000/svg"
 width="500.000000pt" height="160.000000pt" viewBox="0 0 500.000000 160.000000"
 preserveAspectRatio="xMidYMid meet">

<g transform="translate(0.000000,160.000000) scale(0.100000,-0.100000)"
fill="#000000" stroke="none">
<path d="M1771 1566 c-87 -48 -50 -186 49 -186 51 0 100 49 100 99 0 75 -83
124 -149 87z m104 -31 c50 -49 15 -135 -55 -135 -19 0 -40 9 -55 25 -16 15
-25 36 -25 55 0 19 9 40 25 55 15 16 36 25 55 25 19 0 40 -9 55 -25z"/>
<path d="M1795 1500 c-18 -20 -18 -21 3 -43 l22 -21 22 21 c21 22 21 23 3 43
-10 11 -21 20 -25 20 -4 0 -15 -9 -25 -20z m41 -11 c10 -17 -13 -36 -27 -22
-12 12 -4 33 11 33 5 0 12 -5 16 -11z"/>
<path d="M2472 1568 c-7 -7 -12 -20 -12 -29 0 -9 -9 -19 -20 -22 -19 -5 -21
-12 -18 -69 l3 -63 75 0 75 0 3 63 c3 57 1 64 -18 69 -11 3 -20 13 -20 22 0
21 -19 41 -40 41 -9 0 -21 -5 -28 -12z m51 -22 c7 -19 -1 -26 -30 -26 -25 0
-26 1 -17 24 8 20 40 21 47 2z m39 -45 c3 0 5 -25 5 -53 l-2 -53 -65 0 -65 0
0 45 c-1 25 1 50 3 56 2 9 90 13 124 5z"/>
<path d="M2490 1450 c0 -5 5 -10 10 -10 6 0 10 5 10 10 0 6 -4 10 -10 10 -5 0
-10 -4 -10 -10z"/>
<path d="M2812 1568 c-7 -7 -12 -20 -12 -29 0 -9 -9 -19 -20 -22 -19 -5 -21
-12 -18 -69 l3 -63 75 0 75 0 0 65 0 65 -51 3 c-46 3 -51 5 -47 22 6 22 39 27
46 8 2 -7 8 -10 12 -6 11 10 -14 38 -34 38 -9 0 -22 -5 -29 -12z m88 -73 c6
-7 9 -33 8 -57 l-3 -43 -65 0 -65 0 -1 45 c0 25 3 50 8 56 11 16 105 14 118
-1z"/>
<path d="M2830 1450 c0 -5 5 -10 10 -10 6 0 10 5 10 10 0 6 -4 10 -10 10 -5 0
-10 -4 -10 -10z"/>
<path d="M3131 1567 c-6 -6 -11 -17 -11 -24 0 -7 -7 -13 -16 -13 -14 0 -15 -9
-9 -62 4 -35 12 -69 17 -75 6 -8 34 -13 68 -13 34 0 62 5 68 13 5 6 13 40 17
75 7 59 6 62 -15 62 -12 0 -18 4 -15 10 19 30 -77 54 -104 27z m89 -23 c0 -8
-7 -14 -15 -14 -15 0 -21 21 -9 33 10 9 24 -2 24 -19z m-50 1 c0 -8 -7 -15
-15 -15 -8 0 -15 7 -15 15 0 8 7 15 15 15 8 0 15 -7 15 -15z m-2 -44 c-4 -18
-54 -26 -64 -9 -8 13 12 26 43 26 17 0 23 -5 21 -17z m87 0 c0 -9 -13 -16 -32
-18 -28 -4 -33 -1 -33 17 0 18 5 21 33 18 20 -2 32 -8 32 -17z m-85 -65 c0
-37 -15 -49 -43 -34 -11 6 -17 19 -15 38 2 26 6 30 30 30 25 0 28 -3 28 -34z
m78 6 c4 -28 -14 -52 -39 -52 -16 0 -19 8 -19 41 0 38 1 40 28 37 19 -2 28 -9
30 -26z"/>
<path d="M3471 1567 c-6 -6 -11 -17 -11 -24 0 -7 -7 -13 -15 -13 -9 0 -15 -9
-15 -25 0 -22 4 -25 40 -25 36 0 40 3 40 25 0 16 -6 25 -15 25 -17 0 -20 26
-4 35 6 4 13 -2 16 -14 3 -12 9 -21 13 -21 4 0 10 9 13 21 3 12 10 18 16 14
16 -9 13 -35 -4 -35 -9 0 -15 -9 -15 -25 0 -22 4 -25 40 -25 36 0 40 3 40 25
0 19 -5 25 -21 25 -11 0 -17 4 -14 10 19 30 -77 54 -104 27z"/>
<path d="M3805 1560 c-3 -10 -14 -20 -24 -23 -16 -4 -19 -14 -18 -53 1 -67 33
-100 99 -101 38 -1 48 3 53 17 3 11 14 22 24 25 15 4 19 16 19 55 0 39 -4 51
-19 55 -10 3 -21 14 -24 24 -8 27 -102 27 -110 1z m113 -24 c71 -75 -39 -185
-114 -113 -52 49 -16 137 56 137 24 0 42 -8 58 -24z"/>
<path d="M3868 1483 c-23 -22 -29 -24 -42 -13 -9 7 -16 8 -16 2 0 -5 7 -15 16
-23 13 -11 21 -7 52 24 20 20 32 37 27 37 -6 0 -22 -12 -37 -27z"/>
<path d="M4190 1498 l0 -72 -30 29 c-47 45 -49 19 -2 -28 l42 -42 42 42 c47
47 45 73 -2 28 l-30 -29 0 72 c0 41 -4 72 -10 72 -6 0 -10 -31 -10 -72z"/>
<path d="M4495 1530 c-44 -46 -40 -68 5 -25 l30 29 0 -72 c0 -41 4 -72 10 -72
6 0 10 31 10 72 l0 72 30 -29 c45 -43 49 -21 5 25 -22 22 -42 40 -45 40 -3 0
-23 -18 -45 -40z"/>
<path d="M40 1553 c0 -4 14 -22 32 -40 l32 -33 -34 -35 c-44 -45 -30 -59 15
-15 l35 34 35 -34 c45 -44 59 -30 15 15 l-34 35 34 35 c44 45 30 59 -15 15
l-35 -34 -33 32 c-32 31 -47 39 -47 25z"/>
<path d="M445 1520 l-39 -40 41 -42 c23 -23 46 -39 49 -35 4 4 -8 23 -26 42
l-34 35 32 33 c18 18 32 36 32 40 0 16 -18 5 -55 -33z"/>
<path d="M760 1553 c0 -4 14 -22 32 -40 l32 -33 -34 -35 c-18 -19 -30 -38 -26
-42 3 -4 26 12 49 35 l41 42 -39 40 c-37 38 -55 49 -55 33z"/>
<path d="M4825 1520 l-39 -40 41 -42 c47 -47 73 -45 28 2 l-29 30 72 0 c41 0
72 4 72 10 0 6 -31 10 -72 10 l-72 0 27 28 c15 15 27 31 27 35 0 16 -18 5 -55
-33z"/>
<path d="M2080 1530 c0 -6 33 -10 80 -10 47 0 80 4 80 10 0 6 -33 10 -80 10
-47 0 -80 -4 -80 -10z"/>
<path d="M1435 1490 c-48 -49 -38 -67 10 -20 l35 34 35 -34 c19 -18 38 -30 42
-27 6 7 -64 87 -77 87 -3 0 -23 -18 -45 -40z"/>
<path d="M1060 1512 c0 -4 18 -26 40 -47 l40 -39 42 41 c23 23 39 46 35 49 -4
4 -23 -8 -42 -26 l-35 -34 -33 32 c-33 32 -47 39 -47 24z"/>
<path d="M2110 1480 c0 -5 23 -10 50 -10 28 0 50 5 50 10 0 6 -22 10 -50 10
-27 0 -50 -4 -50 -10z"/>
<path d="M3440 1437 c0 -39 15 -57 47 -57 21 0 23 5 23 45 0 45 0 45 -35 45
-33 0 -35 -2 -35 -33z"/>
<path d="M3530 1425 c0 -40 2 -45 23 -45 32 0 47 18 47 57 0 31 -2 33 -35 33
-35 0 -35 0 -35 -45z"/>
<path d="M2130 1430 c0 -5 14 -10 30 -10 17 0 30 5 30 10 0 6 -13 10 -30 10
-16 0 -30 -4 -30 -10z"/>
<path d="M3425 1235 c-22 -21 -25 -33 -25 -95 0 -62 3 -74 25 -95 21 -22 33
-25 95 -25 62 0 74 3 95 25 22 21 25 33 25 95 0 62 -3 74 -25 95 -21 22 -33
25 -95 25 -62 0 -74 -3 -95 -25z m179 -17 c10 -14 16 -44 16 -78 0 -84 -16
-100 -97 -100 -89 0 -103 13 -103 97 0 86 17 103 104 103 56 0 67 -3 80 -22z"/>
<path d="M3575 1209 c-10 -15 3 -25 16 -12 7 7 7 13 1 17 -6 3 -14 1 -17 -5z"/>
<path d="M3477 1182 c-22 -24 -21 -65 1 -85 40 -36 102 -9 102 45 0 51 -69 78
-103 40z m73 -17 c26 -32 -13 -81 -47 -59 -35 22 -23 74 17 74 10 0 23 -7 30
-15z"/>
<path d="M2492 1238 c-7 -7 -12 -25 -12 -40 0 -21 -5 -28 -20 -28 -13 0 -20
-7 -20 -19 0 -10 9 -21 20 -24 16 -4 20 -14 20 -51 0 -39 3 -46 20 -46 17 0
20 7 20 50 0 36 4 50 14 50 8 0 17 7 20 16 9 23 8 24 -14 24 -14 0 -20 7 -20
21 0 12 8 23 20 26 11 3 20 12 20 19 0 17 -51 19 -68 2z"/>
<path d="M411 1226 c-87 -48 -50 -186 49 -186 51 0 100 49 100 99 0 75 -83
124 -149 87z m108 -32 c45 -57 12 -134 -58 -134 -49 0 -81 32 -81 81 0 72 95
108 139 53z"/>
<path d="M450 1160 c0 -16 5 -30 10 -30 6 0 10 14 10 30 0 17 -4 30 -10 30 -5
0 -10 -13 -10 -30z"/>
<path d="M738 1219 c-24 -26 -25 -140 -2 -163 17 -17 114 -23 114 -7 0 5 -14
7 -31 4 -36 -5 -79 3 -79 16 0 6 12 6 28 2 15 -4 33 -6 40 -5 6 1 26 2 42 3
l31 1 -3 83 -3 82 -60 2 c-48 2 -63 -2 -77 -18z m124 -3 c9 -13 10 -98 2 -120
-4 -12 -20 -16 -55 -16 l-49 0 0 69 c0 46 4 71 13 74 23 8 82 3 89 -7z m-112
-66 c0 -33 -4 -60 -8 -60 -10 0 -16 96 -7 110 12 19 15 9 15 -50z"/>
<path d="M1064 1227 c-2 -7 -4 -52 -2 -98 l3 -84 80 -3 c43 -2 76 0 73 3 -3 4
-36 7 -72 7 -36 1 -66 5 -66 9 0 5 30 7 66 6 43 -2 68 1 72 9 4 7 5 45 2 86
l-5 73 -73 3 c-54 2 -74 -1 -78 -11z m144 -75 l3 -73 -68 3 -68 3 -1 55 c-3
87 -2 88 69 86 l62 -1 3 -73z"/>
<path d="M1130 1176 c0 -9 7 -16 16 -16 17 0 14 22 -4 28 -7 2 -12 -3 -12 -12z"/>
<path d="M1122 1142 c-18 -6 -14 -19 8 -25 10 -3 27 1 36 8 16 11 15 12 -7 17
-14 2 -30 3 -37 0z"/>
<path d="M1404 1227 c-3 -8 -4 -52 -2 -98 l3 -84 79 -3 c65 -2 78 0 73 12 -3
8 -3 17 0 20 9 8 7 142 -2 155 -10 17 -144 14 -151 -2z m94 -55 c2 -7 -3 -12
-12 -12 -9 0 -16 7 -16 16 0 17 22 14 28 -4z m17 -31 c8 -14 -30 -32 -49 -25
-9 3 -16 10 -16 14 0 18 55 26 65 11z m31 -83 c3 -4 -25 -7 -62 -7 -40 1 -61
5 -53 10 17 10 109 8 115 -3z"/>
<path d="M1771 1226 c-87 -48 -50 -186 49 -186 51 0 100 49 100 99 0 75 -83
124 -149 87z m110 -32 c31 -33 29 -78 -4 -111 -74 -75 -190 35 -117 112 37 39
83 39 121 -1z"/>
<path d="M1810 1180 c0 -5 5 -10 10 -10 6 0 10 5 10 10 0 6 -4 10 -10 10 -5 0
-10 -4 -10 -10z"/>
<path d="M1810 1120 c0 -16 5 -30 10 -30 6 0 10 14 10 30 0 17 -4 30 -10 30
-5 0 -10 -13 -10 -30z"/>
<path d="M2109 1225 c-34 -19 -48 -57 -46 -125 l2 -55 55 -2 c69 -2 107 12
125 48 48 92 -45 183 -136 134z m106 -30 c33 -33 33 -78 -1 -112 -23 -22 -31
-25 -72 -19 -25 3 -47 8 -49 9 -1 2 -6 24 -9 49 -6 41 -3 49 19 72 34 34 79
34 112 1z"/>
<path d="M4491 1226 c-87 -48 -50 -186 49 -186 51 0 100 49 100 99 0 75 -83
124 -149 87z m110 -32 c49 -52 11 -134 -61 -134 -70 0 -109 81 -64 131 38 43
87 44 125 3z"/>
<path d="M4510 1140 c0 -22 2 -40 5 -40 11 0 75 34 75 40 0 6 -64 40 -75 40
-3 0 -5 -18 -5 -40z"/>
<path d="M4831 1226 c-87 -48 -50 -186 49 -186 51 0 100 49 100 99 0 75 -83
124 -149 87z m68 -63 c17 -10 31 -20 31 -23 0 -7 -59 -40 -71 -40 -5 0 -9 18
-9 40 0 45 5 47 49 23z"/>
<path d="M2793 1210 c-36 -22 -36 -22 -37 -97 l-1 -53 63 0 c53 0 67 4 87 25
71 70 -26 178 -112 125z m95 -17 c12 -10 22 -25 23 -33 7 -66 -26 -96 -93 -86
l-43 6 -3 49 c-2 42 1 52 20 65 30 21 71 20 96 -1z"/>
<path d="M2800 1160 c0 -24 37 -60 62 -60 10 0 18 7 18 16 0 11 -5 14 -16 10
-21 -8 -44 11 -44 35 0 11 -4 19 -10 19 -5 0 -10 -9 -10 -20z"/>
<path d="M3145 1200 c-30 -31 -25 -42 7 -13 17 15 18 14 18 -30 0 -26 5 -47
10 -47 6 0 10 21 10 47 0 44 1 45 18 30 32 -29 37 -18 7 13 -16 17 -32 30 -35
30 -3 0 -19 -13 -35 -30z"/>
<path d="M3797 1223 c-13 -13 -8 -163 6 -169 18 -7 152 69 152 86 0 8 -31 32
-69 52 -73 40 -79 42 -89 31z m83 -44 c33 -17 60 -35 60 -40 0 -8 -112 -69
-127 -69 -10 0 -16 117 -8 131 8 13 9 13 75 -22z"/>
<path d="M4137 1223 c-4 -3 -7 -42 -7 -85 0 -58 4 -80 14 -84 19 -7 151 68
151 86 0 8 -29 31 -65 51 -67 39 -82 44 -93 32z"/>
<path d="M120 1213 c0 -4 12 -20 27 -35 l27 -28 -72 0 c-41 0 -72 -4 -72 -10
0 -6 31 -10 72 -10 l72 0 -29 -30 c-45 -47 -19 -49 28 -2 l41 42 -39 40 c-37
38 -55 49 -55 33z"/>
<path d="M3108 1144 c-11 -10 -10 -66 1 -82 5 -8 31 -14 70 -15 71 -2 81 6 81
66 0 51 -18 47 -22 -5 l-3 -43 -55 0 -55 0 -5 43 c-3 24 -8 40 -12 36z"/>
<path d="M751 886 c-87 -48 -50 -186 49 -186 51 0 100 49 100 99 0 75 -83 124
-149 87z m108 -31 c50 -49 12 -138 -58 -138 -71 0 -110 94 -58 140 42 38 75
38 116 -2z"/>
<path d="M770 801 c0 -23 4 -40 8 -37 10 6 9 62 -1 72 -4 4 -7 -12 -7 -35z"/>
<path d="M819 838 c-6 -14 -4 -70 2 -74 5 -3 9 13 9 35 0 34 -5 52 -11 39z"/>
<path d="M1091 886 c-87 -48 -50 -186 49 -186 51 0 100 49 100 99 0 75 -83
124 -149 87z m36 -86 c0 -22 -4 -40 -9 -40 -4 0 -8 18 -8 40 0 22 4 40 8 40 5
0 9 -18 9 -40z m43 -1 c0 -22 -4 -38 -9 -35 -7 4 -8 59 -2 74 6 13 11 -6 11
-39z"/>
<path d="M2450 880 c-11 -11 -21 -28 -21 -37 -3 -39 -6 -59 -13 -80 -7 -23 -5
-24 32 -26 9 -1 21 -7 25 -14 11 -18 46 -16 54 3 3 9 15 14 32 12 21 -2 25 1
23 17 -1 11 -4 34 -6 50 -5 51 -15 72 -42 83 -36 17 -61 15 -84 -8z m84 -12
c17 -17 26 -37 29 -70 l5 -48 -68 0 -68 0 5 48 c5 44 37 92 63 92 5 0 20 -10
34 -22z m-29 -138 c3 -5 1 -10 -4 -10 -6 0 -11 5 -11 10 0 6 2 10 4 10 3 0 8
-4 11 -10z"/>
<path d="M2790 880 c-11 -11 -20 -23 -21 -27 -1 -5 -2 -21 -3 -38 -1 -16 -6
-40 -10 -52 -7 -23 3 -29 40 -24 7 1 14 -5 18 -14 3 -8 15 -15 26 -15 11 0 23
7 26 15 4 9 11 15 18 14 35 -4 48 2 41 19 -4 9 -8 25 -9 34 -1 10 -6 21 -11
25 -4 5 -5 -9 -2 -29 l6 -38 -68 0 -69 0 5 48 c6 54 30 85 67 85 14 0 23 3 20
8 -10 16 -54 9 -74 -11z m55 -150 c3 -5 1 -10 -4 -10 -6 0 -11 5 -11 10 0 6 2
10 4 10 3 0 8 -4 11 -10z"/>
<path d="M3510 830 c0 -73 0 -73 -20 -55 -33 30 -32 11 0 -20 l30 -29 27 27
c29 29 25 51 -5 24 -18 -16 -19 -14 -19 48 0 36 -3 69 -7 72 -3 4 -6 -27 -6
-67z"/>
<path d="M4151 886 c-87 -48 -50 -186 49 -186 51 0 100 49 100 99 0 75 -83
124 -149 87z m74 -66 c18 -20 18 -21 -3 -43 l-22 -21 -22 21 c-21 22 -21 23
-3 43 10 11 21 20 25 20 4 0 15 -9 25 -20z"/>
<path d="M4469 871 c-20 -20 -29 -39 -29 -61 0 -43 47 -90 90 -90 43 0 90 47
90 90 0 22 -9 41 -29 61 -40 39 -82 39 -122 0z m110 -17 c12 -15 21 -34 21
-44 0 -29 -39 -70 -68 -70 -33 0 -72 37 -72 69 0 13 10 35 22 48 29 31 71 30
97 -3z"/>
<path d="M44 877 c-3 -8 -4 -47 -2 -88 l3 -74 30 0 30 0 0 85 0 85 -28 3 c-16
2 -29 -2 -33 -11z m44 -9 c16 -21 14 -124 -3 -138 -25 -21 -35 -1 -35 69 0 79
12 101 38 69z"/>
<path d="M134 877 c-3 -8 -4 -47 -2 -88 l3 -74 30 0 30 0 0 85 0 85 -28 3
c-16 2 -29 -2 -33 -11z m52 -76 c1 -55 -3 -74 -14 -78 -21 -9 -31 14 -30 71 0
69 6 88 26 84 14 -3 17 -17 18 -77z"/>
<path d="M384 877 c-3 -8 -4 -47 -2 -88 l3 -74 30 0 30 0 0 85 0 85 -28 3
c-16 2 -29 -2 -33 -11z"/>
<path d="M474 877 c-3 -8 -4 -47 -2 -88 l3 -74 30 0 30 0 0 85 0 85 -28 3
c-16 2 -29 -2 -33 -11z"/>
<path d="M1463 883 c9 -2 25 -2 35 0 9 3 1 5 -18 5 -19 0 -27 -2 -17 -5z"/>
<path d="M1734 877 c-3 -8 -4 -47 -2 -88 l3 -74 85 0 85 0 0 85 0 85 -83 3
c-63 2 -84 0 -88 -11z m155 -11 c9 -13 9 -116 -1 -132 -11 -16 -123 -18 -135
-2 -12 15 -12 117 0 136 11 16 123 14 136 -2z"/>
<path d="M2074 877 c-3 -8 -4 -47 -2 -88 l3 -74 85 0 85 0 0 85 0 85 -83 3
c-63 2 -84 0 -88 -11z m153 -10 c12 -18 11 -127 -1 -135 -16 -10 -119 -11
-131 -2 -16 13 -17 116 -2 132 18 18 123 22 134 5z"/>
<path d="M2173 808 c-27 -27 -34 -30 -48 -18 -24 20 -28 6 -5 -15 21 -19 22
-18 63 23 23 23 37 42 32 42 -6 0 -25 -14 -42 -32z"/>
<path d="M2880 874 c-11 -12 -10 -18 3 -32 16 -15 18 -15 34 0 13 14 14 20 3
32 -7 9 -16 16 -20 16 -4 0 -13 -7 -20 -16z"/>
<path d="M3767 883 c-4 -3 -7 -38 -7 -76 0 -59 3 -73 22 -88 26 -23 44 -24 56
-2 9 16 11 16 27 0 21 -21 41 -22 53 -1 5 9 12 15 15 15 23 -3 27 4 27 44 0
39 -5 51 -35 80 -31 32 -39 35 -93 35 -32 0 -62 -3 -65 -7z m121 -63 c2 -47 0
-57 -18 -68 -17 -10 -25 -10 -36 -1 -7 6 -24 9 -37 5 -22 -5 -23 -3 -23 47 1
28 4 57 8 63 4 6 29 11 55 10 l48 -1 3 -55z m50 2 c2 -7 -5 -12 -17 -12 -14 0
-19 5 -14 15 6 17 25 15 31 -3z m7 -32 c4 -6 2 -17 -4 -24 -6 -7 -8 -16 -4
-19 3 -4 -1 -7 -10 -7 -17 0 -32 34 -22 50 8 13 32 13 40 0z m-125 -60 c0 -5
-4 -10 -10 -10 -5 0 -10 5 -10 10 0 6 5 10 10 10 6 0 10 -4 10 -10z m80 0 c0
-5 -4 -10 -10 -10 -5 0 -10 5 -10 10 0 6 5 10 10 10 6 0 10 -4 10 -10z"/>
<path d="M4792 868 c-16 -16 -16 -120 0 -136 7 -7 42 -12 88 -12 46 0 81 5 88
12 7 7 12 37 12 68 0 31 -5 61 -12 68 -7 7 -42 12 -88 12 -46 0 -81 -5 -88
-12z m161 -7 c19 -2 3 -23 -33 -41 l-40 -20 -40 20 c-38 19 -47 30 -35 42 5 4
99 3 148 -1z m-105 -61 c32 -20 32 -20 65 0 47 29 57 26 53 -17 -2 -25 -8 -38
-22 -44 -26 -9 -130 -6 -140 4 -13 12 -12 77 0 77 6 0 26 -9 44 -20z"/>
<path d="M1411 841 c0 -9 -3 -30 -6 -46 -12 -55 48 -104 103 -84 36 14 54 52
47 102 l-7 44 -68 0 c-56 0 -69 -3 -69 -16z m103 -12 c30 -23 33 -54 9 -81
-33 -37 -103 -11 -103 38 0 20 41 64 60 64 4 0 19 -9 34 -21z"/>
<path d="M1470 795 c0 -14 5 -25 10 -25 6 0 10 11 10 25 0 14 -4 25 -10 25 -5
0 -10 -11 -10 -25z"/>
<path d="M3205 810 c-27 -28 -54 -50 -59 -50 -5 0 -18 7 -28 17 -30 27 -30 9
0 -20 l28 -27 59 60 c32 33 57 62 54 65 -3 2 -27 -18 -54 -45z"/>
<path d="M4606 732 c-7 -12 22 -38 31 -28 4 3 0 14 -9 22 -9 10 -18 12 -22 6z"/>
<path d="M3468 708 c-13 -3 10 -6 51 -7 41 -1 71 2 68 5 -9 9 -91 10 -119 2z"/>
<path d="M68 537 l-36 -25 -6 21 c-6 20 -7 21 -17 4 -6 -10 -9 -30 -7 -45 2
-21 9 -28 30 -30 15 -2 35 1 45 7 16 9 16 10 -6 18 l-23 9 26 17 c59 39 126 8
126 -58 0 -74 -79 -100 -131 -44 -16 18 -32 29 -36 25 -12 -12 20 -55 54 -71
98 -47 188 85 110 162 -36 36 -85 40 -129 10z"/>
<path d="M411 546 c-87 -48 -50 -186 49 -186 51 0 100 49 100 99 0 75 -83 124
-149 87z m107 -30 c51 -49 13 -139 -58 -139 -67 0 -107 86 -63 135 38 42 80
44 121 4z"/>
<path d="M751 546 c-87 -48 -50 -186 49 -186 51 0 100 49 100 99 0 75 -83 124
-149 87z m109 -31 c73 -78 -42 -188 -117 -112 -53 53 -18 137 57 137 26 0 43
-7 60 -25z"/>
<path d="M760 500 c-11 -11 -20 -29 -20 -40 0 -26 34 -60 60 -60 11 0 29 9 40
20 11 11 20 29 20 40 0 11 -9 29 -20 40 -11 11 -29 20 -40 20 -11 0 -29 -9
-40 -20z"/>
<path d="M1771 546 c-87 -48 -50 -186 49 -186 51 0 100 49 100 99 0 75 -83
124 -149 87z m109 -31 c30 -32 29 -80 -3 -112 -75 -76 -189 35 -116 113 36 38
82 38 119 -1z"/>
<path d="M1780 480 c0 -5 5 -10 10 -10 6 0 10 5 10 10 0 6 -4 10 -10 10 -5 0
-10 -4 -10 -10z"/>
<path d="M1840 480 c0 -5 5 -10 10 -10 6 0 10 5 10 10 0 6 -4 10 -10 10 -5 0
-10 -4 -10 -10z"/>
<path d="M1786 432 c-2 -4 13 -7 34 -7 21 0 36 3 34 7 -7 10 -61 10 -68 0z"/>
<path d="M2111 546 c-87 -48 -50 -186 49 -186 51 0 100 49 100 99 0 75 -83
124 -149 87z m67 -93 c-23 -22 -29 -24 -42 -13 -9 7 -16 17 -16 22 0 6 7 5 16
-2 13 -11 19 -10 36 8 12 12 24 19 27 16 3 -2 -7 -16 -21 -31z"/>
<path d="M2429 531 c-64 -65 -20 -171 71 -171 33 0 48 6 71 29 64 65 20 171
-71 171 -33 0 -48 -6 -71 -29z m94 -45 l22 19 -19 -22 c-19 -23 -19 -23 0 -45
l19 -23 -22 19 c-23 19 -23 19 -45 0 l-23 -19 19 23 c19 22 19 22 0 45 l-19
22 23 -19 c22 -19 22 -19 45 0z"/>
<path d="M1402 538 c-7 -7 -12 -40 -12 -78 0 -38 5 -71 12 -78 7 -7 40 -12 78
-12 38 0 71 5 78 12 7 7 12 40 12 78 0 38 -5 71 -12 78 -7 7 -40 12 -78 12
-38 0 -71 -5 -78 -12z m132 -4 c37 -14 11 -24 -61 -24 -71 1 -76 2 -59 15 20
15 91 20 120 9z m23 -83 c2 -24 -2 -50 -8 -58 -15 -18 -124 -16 -140 3 -10 12
-11 78 -1 97 2 4 36 7 75 5 l70 -3 4 -44z"/>
<path d="M1430 460 c0 -5 5 -10 10 -10 6 0 10 5 10 10 0 6 -4 10 -10 10 -5 0
-10 -4 -10 -10z"/>
<path d="M1470 460 c0 -5 5 -10 10 -10 6 0 10 5 10 10 0 6 -4 10 -10 10 -5 0
-10 -4 -10 -10z"/>
<path d="M1510 460 c0 -5 5 -10 10 -10 6 0 10 5 10 10 0 6 -4 10 -10 10 -5 0
-10 -4 -10 -10z"/>
<path d="M1430 420 c0 -5 5 -10 10 -10 6 0 10 5 10 10 0 6 -4 10 -10 10 -5 0
-10 -4 -10 -10z"/>
<path d="M1470 420 c0 -5 5 -10 10 -10 6 0 10 5 10 10 0 6 -4 10 -10 10 -5 0
-10 -4 -10 -10z"/>
<path d="M2880 534 c-11 -12 -10 -18 3 -32 16 -15 18 -15 34 0 13 14 14 20 3
32 -7 9 -16 16 -20 16 -4 0 -13 -7 -20 -16z"/>
<path d="M3164 536 c-8 -22 3 -49 19 -43 6 2 12 14 12 27 0 27 -22 39 -31 16z
m26 -16 c0 -5 -4 -10 -10 -10 -5 0 -10 5 -10 10 0 6 5 10 10 10 6 0 10 -4 10
-10z"/>
<path d="M3456 524 c-10 -10 -16 -33 -16 -64 0 -63 17 -80 80 -80 63 0 80 17
80 80 0 31 -6 54 -16 64 -21 21 -107 21 -128 0z m121 -8 c9 -9 12 -92 4 -105
-13 -21 -94 -26 -114 -7 -19 19 -16 104 5 118 12 8 96 4 105 -6z"/>
<path d="M3555 500 c3 -5 8 -10 11 -10 2 0 4 5 4 10 0 6 -5 10 -11 10 -5 0 -7
-4 -4 -10z"/>
<path d="M3490 485 c-15 -18 -10 -45 13 -59 34 -22 73 27 47 59 -16 19 -44 19
-60 0z m50 -11 c11 -12 10 -18 -3 -32 -16 -15 -18 -15 -34 0 -13 14 -14 20 -3
32 7 9 16 16 20 16 4 0 13 -7 20 -16z"/>
<path d="M4163 528 c-28 -14 -36 -32 -38 -93 l-1 -50 55 2 c46 1 59 6 78 28
36 42 27 86 -24 113 -26 14 -41 14 -70 0z m87 -24 c20 -23 16 -75 -5 -90 -10
-8 -38 -13 -61 -12 -38 1 -43 4 -46 29 -5 31 7 70 25 81 21 13 74 9 87 -8z"/>
<path d="M4160 477 c0 -32 68 -66 78 -38 3 10 -1 12 -16 9 -20 -6 -51 17 -44
31 2 3 -1 7 -7 9 -6 2 -11 -3 -11 -11z"/>
<path d="M2760 510 c0 -5 23 -10 50 -10 28 0 50 5 50 10 0 6 -22 10 -50 10
-27 0 -50 -4 -50 -10z"/>
<path d="M4858 499 c-14 -15 -15 -19 -4 -19 8 0 17 6 20 13 5 10 7 10 12 0 3
-7 12 -13 20 -13 10 0 9 5 -6 20 -23 23 -20 23 -42 -1z"/>
<path d="M3800 487 c0 -12 7 -32 15 -44 12 -16 12 -22 2 -26 -6 -3 4 -6 24 -6
42 -1 63 19 72 67 6 29 4 32 -18 32 -13 0 -28 -8 -33 -17 -9 -16 -12 -16 -36
0 -25 17 -26 17 -26 -6z"/>
<path d="M4483 504 c-7 -3 -13 -23 -13 -45 0 -44 16 -53 86 -47 32 2 40 8 48
31 16 43 -2 62 -60 64 -27 1 -55 0 -61 -3z m64 -50 c-9 -9 -28 6 -21 18 4 6
10 6 17 -1 6 -6 8 -13 4 -17z"/>
<path d="M1085 480 c-10 -11 -16 -22 -13 -25 3 -3 13 4 23 15 23 26 67 26 90
0 10 -11 20 -18 23 -15 3 3 -3 14 -13 25 -24 27 -86 27 -110 0z"/>
<path d="M3105 468 c-2 -7 -5 -32 -7 -55 l-4 -43 86 0 86 0 -6 53 -5 52 -73 3
c-52 2 -73 -1 -77 -10z m140 -18 c0 -11 -10 -14 -39 -13 -22 2 -45 -2 -52 -7
-8 -8 -17 -6 -28 5 -26 26 -9 36 57 33 47 -2 62 -7 62 -18z m-17 -38 c10 2 17
-3 17 -12 0 -12 -14 -15 -65 -15 -54 0 -65 3 -68 18 -3 14 1 17 21 12 14 -4
28 -2 32 4 4 8 12 8 26 1 10 -6 27 -10 37 -8z"/>
<path d="M4823 462 c10 -10 17 -29 17 -41 0 -16 5 -21 14 -18 7 3 18 1 23 -4
14 -14 62 29 68 59 5 30 -2 28 -40 -10 -38 -39 -55 -45 -55 -20 -1 19 -23 52
-35 52 -5 0 -1 -8 8 -18z"/>
<path d="M1114 455 c-4 -9 -2 -21 4 -27 16 -16 47 -5 47 17 0 26 -42 34 -51
10z"/>
<path d="M2790 460 c0 -5 23 -10 50 -10 28 0 50 5 50 10 0 6 -22 10 -50 10
-27 0 -50 -4 -50 -10z"/>
<path d="M2810 410 c0 -5 14 -10 30 -10 17 0 30 5 30 10 0 6 -13 10 -30 10
-16 0 -30 -4 -30 -10z"/>
<path d="M71 206 c-87 -48 -50 -186 49 -186 51 0 100 49 100 99 0 75 -83 124
-149 87z m109 -31 c72 -77 -42 -187 -117 -112 -31 30 -34 79 -6 109 37 41 86
42 123 3z"/>
<path d="M76 152 c-11 -10 -5 -27 19 -55 l25 -28 25 28 c35 40 29 58 -22 60
-23 0 -44 -1 -47 -5z"/>
<path d="M1117 213 c-4 -3 -7 -46 -7 -95 0 -71 3 -90 16 -95 8 -3 20 -1 26 5
13 13 17 141 6 172 -7 20 -28 26 -41 13z m33 -94 c0 -59 -3 -80 -12 -77 -8 3
-14 29 -16 68 -3 68 1 90 18 90 6 0 10 -32 10 -81z"/>
<path d="M1515 200 c-3 -10 -11 -20 -18 -22 -8 -2 -5 -10 8 -23 l20 -20 20 20
20 20 -22 22 c-21 20 -22 20 -28 3z"/>
<path d="M1770 193 c-15 -20 -20 -35 -15 -53 4 -14 9 -46 12 -73 5 -52 8 -54
35 -30 17 15 19 15 36 0 27 -24 30 -22 35 30 3 27 8 60 12 75 6 21 2 32 -18
52 -34 34 -70 33 -97 -1z m85 -8 c14 -13 25 -29 25 -35 0 -14 -46 -60 -60 -60
-14 0 -60 46 -60 60 0 14 46 60 60 60 6 0 22 -11 35 -25z m5 -120 c0 -7 -13
-11 -35 -10 -39 3 -50 9 -42 22 8 13 77 3 77 -12z"/>
<path d="M2462 205 c-22 -10 -38 -27 -48 -52 -14 -33 -14 -40 0 -70 11 -22 29
-40 53 -49 33 -14 40 -14 70 0 19 9 40 30 50 50 14 30 14 39 3 66 -22 54 -76
77 -128 55z m28 -35 c0 -25 -4 -30 -24 -30 -33 0 -42 17 -20 41 26 28 44 24
44 -11z m60 12 c27 -22 19 -42 -16 -42 -20 0 -24 5 -24 30 0 35 9 37 40 12z
m-81 -66 c7 -9 6 -19 -5 -35 -13 -17 -19 -20 -30 -10 -8 6 -14 24 -14 39 0 23
4 27 20 23 10 -3 24 -11 29 -17z m98 -43 c-11 -12 -16 -12 -25 0 -15 17 -4 55
17 59 21 4 28 -40 8 -59z m-52 47 c3 -5 -1 -10 -9 -10 -9 0 -16 5 -16 10 0 6
4 10 9 10 6 0 13 -4 16 -10z m11 -47 c21 -28 17 -33 -26 -33 -44 0 -45 1 -28
30 16 25 37 26 54 3z"/>
<path d="M3480 174 c-57 -53 -62 -76 -23 -116 39 -40 63 -36 117 22 43 46 47
54 44 93 -3 42 -3 42 -45 45 -39 3 -47 -1 -93 -44z m126 1 c1 -23 -11 -42 -52
-85 l-53 -55 -33 32 -32 33 52 53 c42 42 58 53 85 52 29 0 32 -3 33 -30z"/>
<path d="M3560 170 c0 -5 5 -10 10 -10 6 0 10 5 10 10 0 6 -4 10 -10 10 -5 0
-10 -4 -10 -10z"/>
<path d="M3816 213 c-3 -3 -6 -14 -6 -24 0 -9 -7 -19 -15 -23 -19 -7 -21 -116
-3 -134 7 -7 26 -12 43 -11 l30 1 -30 10 c-39 14 -42 20 -41 76 1 46 2 46 35
47 25 1 35 -4 41 -20 7 -16 9 -16 9 -3 1 26 20 32 42 12 18 -16 19 -16 19 0 0
9 -7 19 -15 22 -8 4 -15 14 -15 24 0 10 -8 21 -17 23 -29 7 -70 7 -77 0z m39
-23 c3 -6 -1 -13 -10 -16 -19 -8 -30 0 -20 15 8 14 22 14 30 1z m43 -8 c2 -7
-3 -12 -12 -12 -9 0 -16 7 -16 16 0 17 22 14 28 -4z"/>
<path d="M4491 206 c-87 -48 -50 -186 49 -186 51 0 100 49 100 99 0 75 -83
124 -149 87z m106 -28 c51 -48 15 -138 -56 -138 -47 0 -81 32 -81 79 0 72 84
109 137 59z"/>
<path d="M4516 155 c-3 -8 -1 -15 3 -15 5 0 11 6 14 13 2 6 8 8 13 4 4 -4 3
-17 -4 -27 -14 -23 -15 -30 -4 -30 13 0 32 39 26 55 -8 19 -40 20 -48 0z"/>
<path d="M1427 192 c-19 -21 -23 -72 -7 -88 8 -8 7 -19 0 -39 -13 -34 -5 -43
40 -46 69 -4 69 -3 67 50 -2 48 -2 48 -25 33 -52 -34 -110 41 -62 80 13 11 32
17 42 15 10 -3 18 -1 18 4 0 16 -57 9 -73 -9z m86 -131 c6 -26 0 -31 -39 -31
-36 0 -47 10 -38 34 9 24 70 21 77 -3z"/>
<path d="M2074 197 c-3 -8 -4 -47 -2 -88 l3 -74 85 0 85 0 0 85 0 85 -83 3
c-63 2 -84 0 -88 -11z m153 -10 c11 -12 13 -119 2 -133 -5 -6 -36 -12 -68 -13
-49 -1 -62 2 -70 16 -12 23 -12 114 0 129 10 13 123 13 136 1z"/>
<path d="M2137 164 c-14 -14 -7 -25 13 -19 20 6 28 -9 10 -20 -5 -3 -10 -11
-10 -17 0 -6 6 -6 15 2 20 16 16 54 -5 58 -9 1 -19 0 -23 -4z"/>
<path d="M2150 69 c0 -5 5 -7 10 -4 6 3 10 8 10 11 0 2 -4 4 -10 4 -5 0 -10
-5 -10 -11z"/>
<path d="M2790 199 c0 -5 5 -7 11 -4 6 4 35 4 66 0 l55 -7 -6 -66 c-4 -44 -2
-60 4 -47 5 11 9 43 9 71 1 50 0 52 -30 58 -49 9 -109 7 -109 -5z"/>
<path d="M3090 126 c0 -67 3 -85 16 -90 28 -11 140 -6 152 6 18 18 15 114 -4
143 -15 23 -23 25 -90 25 l-74 0 0 -84z m140 64 c0 -6 -26 -10 -59 -10 -33 0
-63 5 -66 10 -4 6 18 10 59 10 37 0 66 -4 66 -10z m25 -80 l0 -55 -75 0 -75 0
-3 58 -3 58 78 -3 78 -3 0 -55z"/>
<path d="M3218 103 c6 -2 18 -2 25 0 6 3 1 5 -13 5 -14 0 -19 -2 -12 -5z"/>
<path d="M468 193 c-10 -3 -21 -15 -24 -29 -3 -13 -10 -24 -15 -24 -5 0 -9 -7
-9 -15 0 -8 5 -15 10 -15 6 0 10 -13 10 -29 0 -16 6 -31 15 -35 12 -4 15 2 15
28 0 21 6 36 15 40 8 3 15 10 15 16 0 5 -7 10 -15 10 -20 0 -19 17 3 29 21 12
6 30 -20 24z"/>
<path d="M727 193 c-4 -3 -7 -39 -7 -80 l0 -73 80 0 80 0 0 80 0 80 -73 0
c-41 0 -77 -3 -80 -7z m43 -33 c0 -5 -4 -10 -10 -10 -5 0 -10 5 -10 10 0 6 5
10 10 10 6 0 10 -4 10 -10z m0 -61 c0 -36 -2 -40 -15 -29 -15 13 -20 51 -8 63
15 16 23 4 23 -34z m78 24 c4 -10 7 -24 6 -30 -1 -7 -2 -18 -3 -24 -2 -20 -21
3 -21 27 0 33 -18 31 -22 -3 -4 -41 -23 -34 -26 10 -3 35 -2 37 27 37 19 0 33
-7 39 -17z"/>
<path d="M4165 189 l-30 -7 33 -1 c40 -1 43 -21 2 -21 -16 0 -30 -4 -30 -10 0
-5 14 -10 31 -10 17 0 28 -4 24 -10 -3 -5 -17 -10 -31 -10 -15 0 -24 -6 -24
-16 0 -29 21 -54 44 -54 26 0 54 26 41 38 -4 4 -10 1 -12 -5 -6 -17 -40 -16
-46 1 -7 18 1 26 25 26 10 0 21 7 24 15 4 8 12 15 20 15 21 0 17 20 -3 20 -16
1 -16 2 1 15 11 8 16 15 10 16 -5 0 -18 2 -29 3 -11 1 -33 -1 -50 -5z"/>
<path d="M2754 166 c-3 -7 -4 -40 -2 -72 l3 -59 70 0 70 0 3 58 c2 35 -2 64
-9 73 -16 19 -128 20 -135 0z m126 -5 c5 -1 6 -76 2 -109 -2 -9 -18 -12 -59
-10 l-58 3 -3 49 c-5 70 -2 73 60 71 29 -1 55 -3 58 -4z"/>
<path d="M2804 116 c-9 -24 3 -46 26 -46 17 0 21 5 18 27 -3 31 -34 44 -44 19z"/>
<path d="M1187 163 c-4 -3 -7 -35 -7 -70 0 -49 4 -65 16 -70 8 -3 20 -1 25 4
14 14 18 103 7 126 -9 17 -29 23 -41 10z m33 -69 c0 -40 -3 -55 -12 -51 -13 4
-19 69 -10 95 10 30 22 7 22 -44z"/>
<path d="M1044 107 c-3 -8 -4 -30 -2 -49 2 -25 8 -33 23 -33 17 0 20 7 20 45
0 35 -4 45 -18 48 -9 2 -20 -3 -23 -11z m36 -37 c0 -16 -5 -30 -10 -30 -14 0
-24 26 -16 45 10 26 26 16 26 -15z"/>
<path d="M3877 102 c-33 -36 -8 -92 40 -92 25 0 53 30 53 57 0 46 -62 69 -93
35z m52 -19 c14 10 14 10 4 -4 -8 -10 -9 -19 -3 -27 7 -9 7 -9 -2 -2 -8 6 -17
5 -27 -3 -14 -10 -14 -10 -4 4 8 10 9 19 3 27 -7 9 -7 9 2 2 8 -6 17 -5 27 3z"/>
</g>
</svg>
