<?xml version="1.0" standalone="no"?>
<!DOCTYPE svg PUBLIC "-//W3C//DTD SVG 20010904//EN"
 "http://www.w3.org/TR/2001/REC-SVG-20010904/DTD/svg10.dtd">
<svg version="1.0" xmlns="http://www.w3.org/2000/svg"
 width="500.000000pt" height="160.000000pt" viewBox="0 0 500.000000 160.000000"
 preserveAspectRatio="xMidYMid meet">

<g transform="translate(0.000000,160.000000) scale(0.100000,-0.100000)"
fill="#000000" stroke="none">
<path d="M1785 1571 c-37 -16 -60 -51 -60 -93 0 -33 6 -45 34 -70 28 -25 39
-29 69 -24 71 11 107 77 76 141 -12 26 -26 37 -53 45 -41 11 -40 11 -66 1z
m61 -17 c23 -6 54 -52 54 -81 0 -28 -51 -73 -83 -73 -15 0 -37 11 -52 25 -33
34 -33 78 0 110 24 25 43 29 81 19z"/>
<path d="M1796 1505 c-15 -22 -15 -29 -4 -43 23 -29 29 -30 54 -5 25 25 25 28
-17 61 -14 10 -19 8 -33 -13z m40 -16 c10 -17 -13 -36 -27 -22 -12 12 -4 33
11 33 5 0 12 -5 16 -11z"/>
<path d="M2478 1569 c-10 -5 -18 -18 -18 -29 0 -10 -9 -22 -20 -25 -16 -5 -20
-15 -20 -55 0 -76 4 -80 70 -80 84 0 90 4 90 60 0 56 -7 80 -24 80 -6 0 -17
14 -23 30 -12 31 -26 36 -55 19z m36 -15 c22 -22 20 -34 -7 -34 -31 0 -38 9
-26 31 12 23 13 23 33 3z m47 -53 c8 -32 5 -100 -5 -103 -6 -3 -35 -4 -65 -4
l-54 1 -3 40 c-5 67 -1 71 66 71 33 0 61 -2 61 -5z"/>
<path d="M2485 1450 c-3 -5 1 -10 9 -10 9 0 16 5 16 10 0 6 -4 10 -9 10 -6 0
-13 -4 -16 -10z"/>
<path d="M2818 1569 c-10 -5 -18 -18 -18 -28 0 -10 -9 -21 -20 -24 -17 -4 -20
-14 -20 -55 0 -78 4 -82 70 -82 84 0 90 4 90 60 0 72 -6 80 -54 80 -47 0 -57
5 -49 26 6 17 40 18 46 2 2 -7 7 -10 11 -7 7 7 -20 39 -32 39 -4 0 -15 -5 -24
-11z m87 -119 l0 -55 -55 -1 c-30 0 -60 2 -66 5 -11 7 -14 93 -3 101 4 3 33 5
66 5 l58 0 0 -55z"/>
<path d="M2830 1450 c0 -5 5 -10 10 -10 6 0 10 5 10 10 0 6 -4 10 -10 10 -5 0
-10 -4 -10 -10z"/>
<path d="M3129 1564 c-6 -7 -8 -18 -4 -24 3 -6 -3 -10 -15 -10 -21 0 -21 -3
-14 -67 3 -38 12 -71 18 -76 6 -4 40 -6 76 -5 l65 3 7 65 c7 60 6 66 -15 82
-12 10 -18 18 -13 18 5 0 3 6 -3 14 -14 17 -87 17 -102 0z m41 -19 c0 -8 -7
-15 -15 -15 -8 0 -15 7 -15 15 0 8 7 15 15 15 8 0 15 -7 15 -15z m50 0 c0 -8
-7 -15 -15 -15 -8 0 -15 7 -15 15 0 8 7 15 15 15 8 0 15 -7 15 -15z m-50 -46
c0 -16 -6 -19 -27 -17 -51 5 -54 34 -3 36 23 0 30 -4 30 -19z m88 4 c2 -8 -5
-13 -16 -13 -11 0 -27 -3 -36 -6 -11 -4 -16 0 -16 14 0 16 6 20 32 19 17 -1
33 -8 36 -14z m-88 -73 c0 -36 -2 -40 -25 -40 -14 0 -25 1 -25 3 -13 81 -14
77 19 77 29 0 31 -2 31 -40z m78 5 c-1 -19 -6 -36 -10 -36 -39 -6 -43 -3 -46
34 -3 35 -2 37 28 37 29 0 30 -2 28 -35z"/>
<path d="M3469 1559 c-5 -10 -6 -19 -2 -20 4 0 -2 -4 -15 -10 -37 -14 -24 -43
21 -47 34 -3 37 -1 37 22 0 16 -6 26 -15 26 -8 0 -15 7 -15 15 0 8 7 15 15 15
8 0 15 -7 15 -15 0 -8 5 -15 10 -15 6 0 10 7 10 15 0 8 7 15 15 15 8 0 15 -5
15 -10 0 -6 -7 -13 -15 -16 -8 -4 -15 -17 -15 -31 0 -22 4 -24 37 -21 44 4 60
35 23 45 -12 3 -19 11 -16 19 13 34 -87 46 -105 13z"/>
<path d="M3803 1562 c-4 -10 -14 -22 -23 -29 -24 -17 -25 -102 -2 -110 10 -4
23 -15 30 -24 19 -27 91 -19 124 14 25 25 28 45 19 120 -1 4 -7 7 -14 7 -7 0
-17 8 -24 18 -15 26 -101 28 -110 4z m113 -19 c14 -14 22 -34 22 -53 -1 -17 1
-33 5 -36 3 -3 -8 -18 -24 -33 -24 -23 -35 -27 -63 -22 -43 7 -91 47 -78 64 5
7 6 21 2 32 -5 15 -1 24 19 37 14 10 22 18 16 18 -5 0 -5 4 2 8 24 15 77 7 99
-15z"/>
<path d="M3868 1483 c-23 -22 -29 -24 -42 -13 -9 7 -16 8 -16 2 0 -5 7 -15 16
-22 13 -11 20 -9 47 18 17 17 29 34 26 36 -3 3 -17 -6 -31 -21z"/>
<path d="M4190 1499 l0 -71 -31 27 c-48 40 -49 20 -1 -28 l42 -41 39 38 c22
22 38 43 34 48 -3 6 -18 -3 -34 -18 l-29 -28 0 72 c0 41 -4 72 -10 72 -6 0
-10 -30 -10 -71z"/>
<path d="M4497 1532 c-43 -44 -38 -66 5 -25 l28 27 0 -73 c0 -45 4 -70 10 -66
6 3 10 36 10 72 l0 66 23 -21 c42 -39 52 -23 12 18 -21 22 -42 40 -45 40 -3 0
-23 -17 -43 -38z"/>
<path d="M40 1553 c0 -4 14 -22 32 -40 l32 -33 -32 -33 c-42 -43 -29 -57 14
-16 l33 32 37 -32 c47 -42 58 -31 14 14 l-34 35 32 33 c42 43 29 57 -14 16
l-33 -32 -36 32 c-37 32 -45 36 -45 24z"/>
<path d="M449 1523 l-42 -40 38 -41 c20 -23 42 -39 47 -36 5 4 -5 21 -23 40
l-33 34 34 35 c47 49 30 55 -21 8z"/>
<path d="M767 1554 c-4 -4 7 -23 25 -41 l32 -33 -34 -35 c-47 -49 -30 -55 21
-7 l42 39 -39 42 c-22 23 -43 39 -47 35z"/>
<path d="M4825 1520 l-39 -40 39 -40 c41 -42 64 -37 24 6 l-22 24 66 0 c38 0
67 4 67 10 0 6 -29 10 -67 10 l-67 0 27 28 c15 15 27 31 27 35 0 16 -18 5 -55
-33z"/>
<path d="M2085 1530 c3 -5 37 -10 75 -10 38 0 72 5 75 10 4 6 -23 10 -75 10
-52 0 -79 -4 -75 -10z"/>
<path d="M1442 1497 c-44 -45 -41 -70 3 -27 l35 34 34 -33 c19 -18 36 -28 40
-23 5 8 -65 82 -77 82 -2 0 -17 -15 -35 -33z"/>
<path d="M1066 1512 c-3 -5 13 -26 35 -47 l41 -37 34 33 c19 18 34 40 34 48 0
10 -12 3 -35 -19 l-35 -34 -34 33 c-19 18 -36 28 -40 23z"/>
<path d="M2120 1480 c0 -5 18 -10 40 -10 22 0 40 5 40 10 0 6 -18 10 -40 10
-22 0 -40 -4 -40 -10z"/>
<path d="M3440 1441 c0 -47 10 -61 41 -61 28 0 29 2 29 45 0 45 0 45 -35 45
-32 0 -35 -2 -35 -29z"/>
<path d="M3530 1425 c0 -43 1 -45 29 -45 31 0 41 14 41 61 0 27 -3 29 -35 29
-35 0 -35 0 -35 -45z"/>
<path d="M2135 1430 c-4 -6 7 -10 25 -10 18 0 29 4 25 10 -3 6 -15 10 -25 10
-10 0 -22 -4 -25 -10z"/>
<path d="M3425 1235 c-22 -21 -25 -33 -25 -95 0 -62 3 -74 25 -95 21 -22 33
-25 93 -25 55 0 75 4 96 21 24 19 26 26 26 95 0 66 -3 78 -25 99 -21 22 -33
25 -95 25 -62 0 -74 -3 -95 -25z m175 -15 c16 -16 20 -33 20 -82 0 -35 -4 -70
-10 -78 -6 -10 -32 -16 -80 -18 -96 -6 -110 6 -110 99 0 88 11 99 96 99 51 0
68 -4 84 -20z"/>
<path d="M3576 1211 c-4 -5 -2 -12 3 -15 5 -4 12 -2 15 3 4 5 2 12 -3 15 -5 4
-12 2 -15 -3z"/>
<path d="M3480 1180 c-24 -24 -25 -48 -4 -78 31 -44 104 -16 104 40 0 24 -35
58 -60 58 -11 0 -29 -9 -40 -20z m64 -13 c21 -16 18 -45 -6 -61 -35 -22 -74
27 -48 59 15 18 31 19 54 2z"/>
<path d="M2492 1238 c-7 -7 -12 -23 -12 -36 0 -15 -7 -26 -20 -29 -27 -7 -27
-43 1 -43 19 0 21 -5 17 -50 -3 -46 -1 -50 20 -50 20 0 22 5 22 50 0 36 4 50
14 50 8 0 17 7 20 16 9 23 8 24 -15 24 -15 0 -20 5 -17 23 2 12 10 22 18 22 8
0 16 8 18 18 3 13 -3 17 -25 17 -16 0 -34 -5 -41 -12z"/>
<path d="M408 1225 c-35 -19 -55 -84 -38 -124 38 -94 185 -63 185 39 0 72 -84
120 -147 85z m109 -27 c52 -49 15 -138 -58 -138 -69 0 -105 86 -57 137 28 30
83 31 115 1z"/>
<path d="M450 1160 c0 -11 5 -20 10 -20 6 0 10 9 10 20 0 11 -4 20 -10 20 -5
0 -10 -9 -10 -20z"/>
<path d="M755 1229 c-4 -5 -7 -42 -7 -81 0 -77 7 -88 54 -83 15 2 28 0 28 -4
0 -10 -76 -8 -86 2 -4 4 -9 37 -12 74 -5 90 -12 93 -12 6 0 -55 4 -73 18 -86
28 -25 86 -22 116 7 22 20 26 32 26 84 0 88 -3 92 -65 92 -30 0 -57 -5 -60
-11z m107 -14 c9 -12 10 -97 2 -119 -4 -12 -20 -16 -55 -16 l-49 0 0 74 0 75
48 -2 c26 -1 50 -6 54 -12z"/>
<path d="M1066 1224 c-3 -9 -6 -51 -6 -95 0 -91 2 -93 105 -86 59 3 59 3 -14
5 -88 2 -86 16 2 18 34 1 65 2 68 3 6 1 1 137 -6 159 -7 19 -141 16 -149 -4z
m144 -69 l0 -75 -68 0 -68 0 0 68 c0 37 5 70 10 74 6 4 37 8 69 8 l57 0 0 -75z"/>
<path d="M1125 1181 c-7 -12 12 -24 25 -16 11 7 4 25 -10 25 -5 0 -11 -4 -15
-9z"/>
<path d="M1115 1140 c-11 -18 31 -30 51 -15 11 8 15 15 9 15 -5 1 -20 3 -32 6
-12 2 -25 0 -28 -6z"/>
<path d="M1406 1225 c-3 -9 -6 -52 -6 -95 0 -90 0 -90 95 -90 74 0 73 -2 65
120 l-5 75 -71 3 c-59 2 -73 0 -78 -13z m89 -44 c7 -12 -12 -24 -25 -16 -11 7
-4 25 10 25 5 0 11 -4 15 -9z m20 -40 c8 -14 -30 -32 -49 -25 -30 11 -16 34
20 34 13 0 25 -4 29 -9z m35 -82 c0 -4 -25 -7 -55 -6 -30 1 -55 5 -55 10 0 4
25 7 55 6 30 -1 55 -6 55 -10z"/>
<path d="M1774 1226 c-76 -34 -64 -153 17 -178 58 -17 104 7 119 62 13 48 8
69 -24 99 -30 28 -72 34 -112 17z m117 -42 c27 -52 -2 -116 -57 -127 -32 -6
-86 30 -94 63 -7 29 7 70 30 85 43 28 99 18 121 -21z"/>
<path d="M1810 1120 c0 -16 5 -30 10 -30 6 0 10 14 10 30 0 17 -4 30 -10 30
-5 0 -10 -13 -10 -30z"/>
<path d="M2120 1229 c-38 -14 -52 -45 -55 -119 l-3 -66 69 1 c60 1 73 4 94 25
13 14 27 41 30 61 12 68 -66 124 -135 98z m95 -34 c34 -33 33 -76 -2 -111 -23
-23 -31 -26 -71 -20 -25 3 -46 7 -48 9 -1 1 -5 22 -9 47 -6 40 -3 49 19 73 33
35 78 36 111 2z"/>
<path d="M4495 1226 c-30 -13 -55 -51 -55 -82 0 -26 30 -82 48 -89 68 -28 126
-5 142 54 23 87 -53 153 -135 117z m116 -42 c45 -84 -60 -170 -126 -103 -49
50 -30 123 38 140 31 7 73 -11 88 -37z"/>
<path d="M4510 1146 c0 -45 11 -51 51 -27 l32 20 -34 20 c-45 28 -49 27 -49
-13z"/>
<path d="M4844 1230 c-39 -15 -66 -61 -60 -99 18 -110 170 -114 190 -6 15 77
-57 135 -130 105z m54 -66 c18 -8 32 -19 32 -23 0 -10 -67 -41 -74 -34 -8 8
-8 58 1 66 8 9 5 10 41 -9z"/>
<path d="M2817 1222 c-40 -5 -62 -44 -62 -113 0 -53 1 -56 20 -49 11 4 29 4
40 0 52 -19 117 31 113 85 -5 52 -52 85 -111 77z m70 -27 c28 -19 33 -46 17
-83 -14 -34 -40 -45 -93 -39 -36 4 -42 14 -42 72 0 55 69 84 118 50z"/>
<path d="M2800 1160 c0 -23 39 -62 59 -58 8 2 16 9 19 17 3 10 0 12 -13 7 -22
-8 -45 10 -45 35 0 11 -4 19 -10 19 -5 0 -10 -9 -10 -20z"/>
<path d="M3147 1204 c-16 -14 -26 -29 -23 -32 3 -3 15 3 26 13 20 18 20 18 20
-28 0 -26 5 -47 10 -47 6 0 10 21 10 47 0 46 0 46 20 28 30 -27 34 -12 6 18
-31 33 -34 33 -69 1z"/>
<path d="M3797 1223 c-4 -3 -7 -42 -7 -85 0 -57 4 -80 14 -84 14 -5 141 60
152 78 8 13 -25 39 -93 73 -57 28 -57 28 -66 18z m113 -59 c16 -9 30 -20 30
-25 0 -12 -118 -71 -129 -65 -10 6 -14 123 -5 137 3 6 20 1 39 -11 19 -12 48
-28 65 -36z"/>
<path d="M4137 1223 c-4 -3 -7 -42 -7 -85 0 -57 4 -80 13 -84 14 -5 120 47
147 73 13 12 12 16 -10 33 -14 11 -29 20 -33 20 -4 0 -25 11 -45 25 -38 26
-54 30 -65 18z"/>
<path d="M127 1214 c-4 -4 5 -20 20 -36 l27 -28 -67 0 c-38 0 -67 -4 -67 -10
0 -6 29 -10 67 -10 l67 0 -28 -29 c-15 -16 -24 -31 -18 -34 5 -4 26 12 48 34
l38 39 -40 41 c-22 22 -43 36 -47 33z"/>
<path d="M3108 1144 c-10 -9 -10 -56 -2 -78 9 -23 139 -23 148 0 9 25 7 72 -4
79 -6 4 -10 -12 -10 -40 l0 -46 -57 3 -58 3 -5 43 c-3 24 -8 40 -12 36z"/>
<path d="M735 867 c-25 -25 -35 -44 -35 -66 0 -43 45 -90 92 -98 33 -5 41 -2
73 30 25 25 35 44 35 66 0 43 -45 90 -92 98 -33 5 -41 2 -73 -30z m133 -20
c30 -60 9 -112 -51 -128 -76 -20 -136 88 -77 139 43 36 107 31 128 -11z"/>
<path d="M770 802 c0 -23 4 -42 9 -42 10 0 7 67 -3 77 -3 4 -6 -12 -6 -35z"/>
<path d="M814 804 c5 -51 16 -55 16 -6 0 23 -4 42 -9 42 -6 0 -8 -16 -7 -36z"/>
<path d="M1080 873 c-84 -75 -1 -205 102 -162 57 24 72 110 27 155 -13 12 -40
26 -60 29 -31 6 -41 3 -69 -22z m90 -69 c0 -25 -4 -43 -9 -39 -6 3 -8 18 -7
33 2 15 4 33 5 40 0 6 3 12 6 12 3 0 5 -21 5 -46z m-44 -3 c-1 -57 -16 -63
-16 -8 0 26 4 47 9 47 4 0 8 -18 7 -39z"/>
<path d="M1456 892 c-13 -13 -4 -18 24 -14 17 2 30 7 30 11 0 8 -47 11 -54 3z"/>
<path d="M2452 877 c-14 -15 -22 -36 -22 -58 0 -20 -3 -39 -7 -43 -16 -16 -10
-36 10 -36 11 0 31 -9 43 -21 l22 -21 21 21 c12 12 33 21 47 21 22 0 24 3 18
23 -4 12 -8 38 -10 57 -3 40 -42 80 -78 80 -12 0 -32 -10 -44 -23z m103 -31
c2 -12 6 -38 9 -58 l5 -38 -70 0 -71 0 6 30 c3 17 9 43 12 59 10 54 98 59 109
7z m-45 -116 c0 -5 -5 -10 -11 -10 -5 0 -7 5 -4 10 3 6 8 10 11 10 2 0 4 -4 4
-10z"/>
<path d="M2798 884 c-21 -11 -28 -23 -29 -47 -1 -31 -3 -47 -8 -57 -11 -24 -7
-40 10 -40 28 0 32 -2 50 -23 15 -19 16 -19 34 -1 10 11 30 19 44 20 26 0 28
5 18 56 -7 36 -20 31 -14 -4 l6 -38 -71 0 c-60 0 -69 2 -64 16 3 9 6 28 6 44
0 38 30 73 63 73 15 0 24 3 21 8 -8 13 -35 10 -66 -7z m52 -154 c0 -5 -4 -10
-10 -10 -5 0 -10 5 -10 10 0 6 5 10 10 10 6 0 10 -4 10 -10z"/>
<path d="M3512 831 c-2 -71 -3 -73 -20 -58 -31 29 -37 19 -8 -12 32 -33 47
-31 72 7 l17 27 -21 -19 c-26 -23 -30 -16 -35 69 -3 59 -3 58 -5 -14z"/>
<path d="M4165 891 c-103 -43 -67 -195 44 -186 62 5 101 68 81 130 -16 48 -78
75 -125 56z m61 -76 c19 -15 19 -15 0 -30 -11 -8 -23 -15 -26 -15 -3 0 -15 7
-26 15 -19 15 -19 15 0 30 11 8 23 15 26 15 3 0 15 -7 26 -15z"/>
<path d="M4490 887 c-15 -7 -31 -29 -39 -53 -13 -36 -12 -43 3 -67 10 -14 33
-31 52 -37 47 -16 94 11 107 60 12 45 -4 77 -48 96 -41 17 -43 17 -75 1z m84
-23 c50 -49 11 -132 -56 -120 -13 3 -26 5 -29 5 -13 2 -28 53 -23 80 9 45 76
67 108 35z"/>
<path d="M44 877 c-3 -8 -4 -47 -2 -88 l3 -74 30 0 30 0 0 85 0 85 -28 3 c-16
2 -29 -2 -33 -11z m51 -76 c0 -62 -3 -75 -17 -77 -22 -3 -29 20 -27 87 2 63 5
71 27 67 14 -3 17 -16 17 -77z"/>
<path d="M134 877 c-3 -8 -4 -47 -2 -88 l3 -74 30 0 30 0 0 85 0 85 -28 3
c-16 2 -29 -2 -33 -11z m52 -21 c2 -12 4 -46 2 -76 -3 -47 -6 -55 -23 -55 -18
0 -20 7 -21 70 0 39 1 73 2 76 7 14 35 4 40 -15z"/>
<path d="M384 877 c-3 -8 -4 -47 -2 -88 l3 -74 33 -3 33 -3 -3 88 c-3 88 -3
88 -31 91 -16 2 -29 -2 -33 -11z"/>
<path d="M474 877 c-3 -8 -4 -47 -2 -88 l3 -74 30 0 30 0 0 85 0 85 -28 3
c-16 2 -29 -2 -33 -11z"/>
<path d="M1742 878 c-7 -7 -12 -40 -12 -78 0 -38 5 -71 12 -78 12 -12 124 -17
152 -6 13 5 16 22 16 78 0 43 -5 77 -12 84 -7 7 -40 12 -78 12 -38 0 -71 -5
-78 -12z m149 -12 c2 -16 6 -136 5 -137 -1 0 -34 -3 -73 -6 -82 -5 -74 -13
-78 82 -1 28 3 56 8 63 12 16 136 14 138 -2z"/>
<path d="M2082 878 c-7 -7 -12 -40 -12 -78 0 -38 5 -71 12 -78 7 -7 40 -12 78
-12 38 0 71 5 78 12 7 7 12 40 12 78 0 38 -5 71 -12 78 -7 7 -40 12 -78 12
-38 0 -71 -5 -78 -12z m149 -5 c1 -5 3 -38 4 -75 3 -77 5 -75 -87 -78 -41 -1
-58 3 -59 12 -8 73 -3 134 11 140 21 9 130 10 131 1z"/>
<path d="M2173 808 c-27 -27 -34 -30 -48 -18 -24 20 -28 6 -5 -15 21 -19 22
-18 63 23 23 23 37 42 32 42 -6 0 -25 -14 -42 -32z"/>
<path d="M2880 874 c-11 -12 -10 -18 3 -32 16 -15 18 -15 34 0 13 14 14 20 3
32 -7 9 -16 16 -20 16 -4 0 -13 -7 -20 -16z"/>
<path d="M3767 883 c-4 -3 -7 -37 -7 -76 0 -59 3 -71 23 -88 28 -23 37 -23 52
-2 13 17 14 17 32 0 24 -21 39 -22 47 -2 3 8 9 15 13 14 26 -4 33 4 33 36 0
42 -25 95 -44 95 -8 0 -16 7 -20 15 -4 11 -21 15 -64 15 -32 0 -62 -3 -65 -7z
m111 -12 c8 -1 12 -19 12 -56 0 -49 -3 -57 -25 -67 -18 -8 -28 -8 -39 1 -10 9
-20 9 -34 2 -18 -9 -19 -6 -17 52 1 34 3 65 3 68 2 6 50 6 100 0z m62 -52 c0
-5 -9 -9 -20 -9 -19 0 -27 20 -13 33 7 8 33 -11 33 -24z m3 -34 c4 -8 2 -17
-4 -20 -5 -4 -7 -11 -4 -16 4 -5 2 -9 -4 -9 -14 0 -29 32 -24 48 6 17 30 15
36 -3z m-123 -60 c0 -8 -6 -12 -14 -9 -8 3 -12 12 -9 20 6 17 23 9 23 -11z
m84 0 c-3 -8 -12 -11 -19 -9 -8 3 -11 12 -9 19 3 8 12 11 19 9 8 -3 11 -12 9
-19z"/>
<path d="M4792 868 c-13 -13 -16 -116 -4 -136 6 -9 33 -12 98 -10 l89 3 3 63
c2 38 -2 69 -9 78 -15 18 -159 20 -177 2z m172 -13 c2 -7 -17 -22 -43 -35 -41
-19 -52 -20 -72 -10 -40 21 -61 43 -48 51 19 12 158 7 163 -6z m-117 -55 c37
-19 37 -19 70 1 18 11 37 18 43 14 13 -8 9 -75 -5 -76 -5 -1 -41 -3 -78 -4
-74 -2 -87 7 -87 59 0 31 9 32 57 6z"/>
<path d="M1413 839 c3 -11 1 -19 -3 -19 -15 0 -3 -71 16 -91 24 -26 77 -25
107 4 18 17 23 30 21 57 -2 19 -4 42 -5 50 0 12 -16 15 -71 16 -63 1 -69 0
-65 -17z m117 -24 c18 -34 5 -71 -29 -83 -25 -9 -34 -7 -56 9 -39 32 -32 80
15 97 33 12 55 5 70 -23z"/>
<path d="M1470 795 c0 -14 5 -25 10 -25 6 0 10 11 10 25 0 14 -4 25 -10 25 -5
0 -10 -11 -10 -25z"/>
<path d="M3200 809 c-50 -51 -50 -51 -76 -34 -14 9 -28 14 -32 11 -7 -7 37
-56 51 -56 16 0 127 119 117 125 -5 3 -32 -17 -60 -46z"/>
<path d="M4610 728 c0 -18 18 -34 28 -24 3 4 -2 14 -11 23 -16 16 -17 16 -17
1z"/>
<path d="M3450 708 c0 -5 32 -8 72 -8 39 0 68 3 65 6 -9 10 -137 11 -137 2z"/>
<path d="M90 553 c-8 -3 -25 -15 -37 -26 l-23 -20 0 22 c0 14 -5 21 -12 19 -8
-3 -13 -21 -13 -44 0 -39 0 -39 39 -39 23 0 41 5 44 13 2 6 -4 12 -14 12 -16
0 -16 1 1 20 24 26 75 26 103 0 30 -28 29 -74 -3 -105 -35 -35 -75 -33 -110 7
-30 33 -45 25 -25 -12 18 -34 75 -53 115 -40 48 16 68 43 69 95 1 35 -4 50
-25 71 -26 25 -79 39 -109 27z"/>
<path d="M420 549 c-46 -17 -67 -72 -49 -127 17 -52 77 -73 134 -46 49 23 65
72 41 128 -11 27 -23 37 -53 45 -43 12 -40 12 -73 0z m98 -32 c47 -51 20 -129
-48 -138 -29 -4 -68 13 -78 34 -21 44 -20 56 1 88 34 51 87 57 125 16z"/>
<path d="M753 544 c-24 -12 -36 -27 -43 -56 -13 -47 -8 -67 25 -98 36 -34 97
-33 132 3 78 77 -15 200 -114 151z m106 -25 c29 -31 31 -65 7 -102 -54 -80
-154 -36 -147 65 3 53 101 79 140 37z"/>
<path d="M760 498 c-31 -34 -25 -64 17 -87 29 -15 36 -14 60 7 25 22 24 67 -2
86 -28 21 -51 19 -75 -6z"/>
<path d="M1775 549 c-43 -21 -61 -75 -44 -127 17 -52 77 -73 134 -46 76 36 67
151 -14 174 -43 12 -50 12 -76 -1z m103 -29 c48 -57 23 -132 -48 -141 -29 -4
-68 13 -78 34 -21 42 -19 66 9 101 26 34 90 37 117 6z"/>
<path d="M1780 480 c0 -5 5 -10 10 -10 6 0 10 5 10 10 0 6 -4 10 -10 10 -5 0
-10 -4 -10 -10z"/>
<path d="M1840 480 c0 -5 5 -10 10 -10 6 0 10 5 10 10 0 6 -4 10 -10 10 -5 0
-10 -4 -10 -10z"/>
<path d="M1786 432 c-2 -4 13 -8 35 -8 21 -1 36 2 33 7 -6 11 -61 12 -68 1z"/>
<path d="M2125 551 c-51 -21 -76 -90 -51 -139 31 -60 114 -66 161 -10 41 48
27 115 -30 142 -36 18 -50 19 -80 7z m75 -69 c0 -5 -11 -19 -24 -32 -27 -24
-56 -21 -56 6 0 13 3 14 13 5 11 -8 18 -6 32 9 19 21 35 26 35 12z"/>
<path d="M2435 538 c-15 -14 -28 -38 -32 -61 -18 -114 133 -163 186 -60 47 93
-75 189 -154 121z m55 -61 c0 -5 9 -2 20 8 25 23 36 14 18 -15 -10 -18 -10
-24 0 -27 6 -3 10 -9 7 -14 -3 -5 -15 -3 -27 4 -16 9 -22 9 -25 0 -3 -7 -9
-13 -15 -13 -6 0 -5 6 2 15 10 12 10 21 2 40 -9 20 -9 23 3 18 8 -3 15 -10 15
-16z"/>
<path d="M1402 538 c-7 -7 -12 -41 -12 -84 0 -83 1 -84 90 -84 89 0 90 1 90
84 0 43 -5 77 -12 84 -7 7 -40 12 -78 12 -38 0 -71 -5 -78 -12z m146 -15 c3
-10 -15 -13 -67 -13 -66 0 -82 6 -64 24 12 12 126 2 131 -11z m-4 -29 c19 -7
22 -84 4 -102 -16 -16 -124 -16 -134 0 -12 19 -12 92 0 100 13 9 108 10 130 2z"/>
<path d="M1515 471 c-3 -5 -1 -12 5 -16 5 -3 10 1 10 9 0 18 -6 21 -15 7z"/>
<path d="M1425 460 c4 -6 11 -8 16 -5 14 9 11 15 -7 15 -8 0 -12 -5 -9 -10z"/>
<path d="M1470 460 c0 -5 5 -10 10 -10 6 0 10 5 10 10 0 6 -4 10 -10 10 -5 0
-10 -4 -10 -10z"/>
<path d="M1476 431 c-4 -7 -5 -15 -2 -18 9 -9 19 4 14 18 -4 11 -6 11 -12 0z"/>
<path d="M1430 419 c0 -5 5 -7 10 -4 6 3 10 8 10 11 0 2 -4 4 -10 4 -5 0 -10
-5 -10 -11z"/>
<path d="M2880 534 c-11 -12 -10 -18 3 -32 16 -15 18 -15 34 0 13 14 14 20 3
32 -7 9 -16 16 -20 16 -4 0 -13 -7 -20 -16z"/>
<path d="M3167 544 c-4 -4 -7 -18 -7 -31 0 -26 27 -32 37 -7 6 17 -19 49 -30
38z m23 -35 c0 -6 -4 -7 -10 -4 -5 3 -10 11 -10 16 0 6 5 7 10 4 6 -3 10 -11
10 -16z"/>
<path d="M3457 522 c-22 -24 -23 -105 -1 -126 23 -23 106 -21 127 2 24 26 23
104 -1 125 -26 24 -104 23 -125 -1z m110 -7 c19 -13 22 -22 19 -60 -2 -25 -6
-48 -10 -52 -3 -4 -28 -7 -56 -9 -43 -2 -50 1 -57 20 -11 34 -10 87 2 100 17
17 76 17 102 1z"/>
<path d="M3555 500 c3 -5 8 -10 11 -10 2 0 4 5 4 10 0 6 -5 10 -11 10 -5 0 -7
-4 -4 -10z"/>
<path d="M3488 474 c-11 -22 -10 -28 7 -40 28 -21 44 -17 57 12 11 22 10 28
-7 40 -28 21 -44 17 -57 -12z m46 -31 c-21 -15 -34 -8 -34 17 0 25 22 32 38
11 11 -13 10 -18 -4 -28z"/>
<path d="M4175 530 c-34 -13 -47 -37 -50 -92 l-3 -53 41 2 c23 1 49 2 58 2 26
1 59 40 59 70 0 31 -33 71 -58 70 -13 0 -12 -2 4 -9 40 -16 52 -68 23 -99 -25
-26 -104 -28 -106 -2 -1 9 -2 21 -3 26 -8 36 2 58 30 68 17 6 30 15 30 19 0 9
1 9 -25 -2z"/>
<path d="M2770 510 c0 -5 20 -10 45 -10 25 0 45 5 45 10 0 6 -20 10 -45 10
-25 0 -45 -4 -45 -10z"/>
<path d="M4870 510 c0 -6 -11 -15 -25 -20 -26 -10 -32 -24 -15 -35 6 -3 10
-17 10 -31 0 -25 14 -32 26 -12 4 7 3 8 -4 4 -8 -5 -12 0 -12 13 0 10 -2 25
-5 33 -3 7 4 19 16 26 17 11 23 11 36 0 15 -12 15 -11 2 10 -14 23 -29 29 -29
12z"/>
<path d="M1125 502 c-23 -5 -55 -31 -55 -45 0 -6 10 -1 23 11 29 27 68 28 92
2 10 -11 23 -20 28 -20 15 0 -32 47 -51 52 -10 2 -26 2 -37 0z"/>
<path d="M3862 494 c-8 -13 -13 -14 -31 -4 -30 15 -32 12 -16 -32 11 -32 10
-38 -4 -41 -9 -3 3 -5 26 -6 46 -1 64 16 77 72 6 24 4 27 -18 27 -14 0 -29 -7
-34 -16z"/>
<path d="M4482 498 c-7 -7 -12 -24 -12 -38 0 -37 18 -50 66 -50 48 0 74 19 74
54 0 33 -19 46 -70 46 -25 0 -51 -5 -58 -12z m67 -32 c9 -11 8 -15 -5 -20 -23
-9 -24 -8 -24 14 0 23 13 26 29 6z"/>
<path d="M4164 486 c-5 -14 0 -25 22 -43 29 -23 46 -26 45 -8 -1 6 -7 10 -14
10 -18 1 -38 15 -33 24 3 4 1 13 -4 21 -7 12 -10 11 -16 -4z"/>
<path d="M4920 480 c0 -5 5 -10 11 -10 5 0 7 5 4 10 -3 6 -8 10 -11 10 -2 0
-4 -4 -4 -10z"/>
<path d="M3105 468 c-2 -7 -5 -32 -7 -55 l-4 -43 87 0 86 0 -4 33 c-10 80 -6
77 -84 77 -47 0 -71 -4 -74 -12z m138 -12 c9 -22 -12 -36 -38 -24 -16 7 -29 7
-43 -1 -16 -9 -24 -8 -36 5 -25 24 -10 34 54 34 40 0 59 -4 63 -14z m-15 -44
c10 2 17 -3 17 -12 0 -12 -14 -15 -64 -15 -54 0 -65 3 -67 18 -2 13 3 16 14
13 9 -3 24 -1 31 4 9 5 22 5 33 -1 10 -5 26 -9 36 -7z"/>
<path d="M1114 455 c-4 -9 -2 -21 4 -27 16 -16 47 -5 47 17 0 26 -42 34 -51
10z"/>
<path d="M2800 460 c0 -5 18 -10 40 -10 22 0 40 5 40 10 0 6 -18 10 -40 10
-22 0 -40 -4 -40 -10z"/>
<path d="M4898 438 c-34 -43 -14 -53 25 -14 14 14 22 27 19 30 -11 11 -27 5
-44 -16z"/>
<path d="M2820 410 c0 -5 9 -10 20 -10 11 0 20 5 20 10 0 6 -9 10 -20 10 -11
0 -20 -4 -20 -10z"/>
<path d="M75 209 c-47 -23 -66 -92 -38 -139 34 -58 134 -62 161 -7 21 44 23
67 7 101 -23 48 -82 68 -130 45z m105 -34 c43 -45 16 -126 -46 -138 -23 -4
-75 21 -89 42 -15 25 -7 72 15 96 37 39 83 39 120 0z"/>
<path d="M73 143 c-3 -8 6 -27 21 -41 l27 -27 25 28 c24 28 30 46 17 48 -52 7
-86 4 -90 -8z"/>
<path d="M1117 213 c-4 -3 -7 -43 -7 -88 0 -61 4 -86 15 -95 26 -22 40 3 39
69 -3 120 -3 121 -22 121 -10 0 -22 -3 -25 -7z m33 -92 c0 -74 -13 -114 -23
-74 -7 26 -8 134 -1 144 15 26 24 1 24 -70z"/>
<path d="M1520 207 c0 -8 -8 -18 -18 -23 -16 -8 -16 -10 4 -30 l21 -20 21 23
c15 17 17 23 6 23 -8 0 -14 6 -14 14 0 8 -4 18 -10 21 -5 3 -10 0 -10 -8z"/>
<path d="M1792 210 c-32 -13 -48 -53 -34 -85 7 -14 12 -44 12 -65 0 -33 3 -38
18 -33 9 4 20 11 24 17 4 6 14 4 26 -7 27 -25 32 -21 32 24 0 22 4 49 10 59
15 29 1 76 -26 89 -29 13 -31 13 -62 1z m72 -31 c17 -25 9 -56 -20 -76 -44
-28 -98 42 -63 83 18 21 65 17 83 -7z m-8 -113 c3 -19 -17 -21 -34 -4 -9 9
-12 9 -12 0 0 -20 -26 -14 -27 6 -1 16 5 18 34 17 25 -2 37 -8 39 -19z"/>
<path d="M2457 204 c-75 -40 -65 -150 16 -172 97 -27 166 101 86 159 -33 25
-70 29 -102 13z m33 -34 c0 -25 -4 -30 -24 -30 -33 0 -42 17 -20 41 26 28 44
24 44 -11z m64 11 c22 -24 13 -41 -20 -41 -20 0 -24 5 -24 30 0 35 18 39 44
11z m-74 -67 c0 -3 -7 -16 -16 -30 -13 -19 -20 -22 -30 -13 -8 6 -14 24 -14
40 0 27 1 28 30 18 17 -6 30 -13 30 -15z m100 -3 c0 -56 -45 -60 -48 -4 -1 19
9 27 41 32 4 0 7 -12 7 -28z m-61 5 c10 -12 8 -13 -8 -9 -12 3 -21 9 -21 14 0
14 16 11 29 -5z m10 -45 c13 -24 5 -31 -36 -31 -37 0 -38 2 -21 30 16 25 44
26 57 1z"/>
<path d="M3480 169 c-25 -28 -47 -57 -48 -66 -5 -20 58 -84 74 -75 6 4 35 27
63 51 46 40 51 48 51 86 0 47 -10 56 -63 54 -25 0 -42 -11 -77 -50z m127 11
c0 -14 -6 -36 -15 -50 -19 -30 -79 -90 -90 -90 -5 0 -21 13 -36 29 -32 33 -28
48 25 96 57 51 113 58 116 15z"/>
<path d="M3566 181 c-4 -7 -5 -15 -2 -18 9 -9 19 4 14 18 -4 11 -6 11 -12 0z"/>
<path d="M3815 212 c-3 -3 -5 -13 -5 -23 0 -9 -7 -19 -15 -23 -11 -4 -15 -21
-15 -65 0 -51 3 -62 21 -71 11 -6 30 -9 42 -7 18 4 18 4 -5 6 -35 1 -49 27
-45 82 3 42 4 43 40 45 30 1 37 -2 37 -17 0 -11 5 -19 11 -19 5 0 3 -10 -5
-22 -9 -12 -16 -30 -16 -39 0 -22 32 -49 58 -49 22 0 52 34 52 61 0 21 -32 49
-57 49 -25 0 -33 8 -26 26 7 19 30 18 42 -3 10 -17 10 -17 11 0 0 10 -6 20
-14 23 -8 3 -17 16 -20 28 -5 19 -12 23 -46 23 -21 0 -42 -2 -45 -5z m38 -22
c4 -15 0 -20 -14 -20 -21 0 -26 25 -6 33 6 3 13 6 13 6 1 1 4 -8 7 -19z m33
-17 c-11 -11 -19 6 -11 24 8 17 8 17 12 0 3 -10 2 -21 -1 -24z m49 -109 c0
-14 -5 -20 -17 -16 -25 6 -29 37 -4 37 15 0 21 -6 21 -21z"/>
<path d="M4505 211 c-32 -14 -57 -47 -62 -84 -6 -44 34 -94 82 -103 71 -13
130 60 105 132 -16 47 -78 74 -125 55z m92 -33 c50 -47 16 -138 -52 -138 -78
0 -117 93 -59 139 35 27 81 27 111 -1z"/>
<path d="M4520 160 c0 -5 7 -7 15 -4 17 7 21 -21 5 -31 -5 -3 -10 -10 -10 -16
0 -16 15 -10 28 12 10 16 10 24 1 35 -13 16 -39 19 -39 4z"/>
<path d="M4535 80 c-3 -5 -1 -10 4 -10 6 0 11 5 11 10 0 6 -2 10 -4 10 -3 0
-8 -4 -11 -10z"/>
<path d="M1426 188 c-18 -25 -21 -74 -7 -83 9 -5 8 -36 -3 -53 -10 -16 10 -31
44 -33 70 -4 70 -3 67 49 -2 47 -2 48 -26 36 -54 -28 -108 40 -61 78 13 11 31
16 41 13 11 -4 19 -2 19 4 0 21 -58 12 -74 -11z m87 -127 c7 -27 0 -31 -45
-31 -30 0 -38 4 -38 18 0 26 9 32 46 32 23 0 33 -5 37 -19z"/>
<path d="M2082 198 c-7 -7 -12 -40 -12 -78 0 -38 5 -71 12 -78 16 -16 140 -16
156 0 7 7 12 40 12 78 0 38 -5 71 -12 78 -16 16 -140 16 -156 0z m146 -12 c12
-7 13 -134 2 -137 -30 -8 -132 -4 -138 5 -11 16 -10 130 1 137 12 8 120 4 135
-5z"/>
<path d="M2140 155 c-8 -10 -9 -15 -1 -15 6 0 11 5 11 12 0 9 3 9 12 0 8 -8 8
-15 -2 -27 -7 -8 -10 -19 -6 -22 10 -11 27 19 24 41 -4 25 -22 31 -38 11z"/>
<path d="M2778 181 c-24 -24 -28 -36 -28 -84 0 -65 8 -71 96 -65 l49 3 3 49
c5 84 -1 96 -53 96 -25 0 -45 5 -45 10 0 11 28 13 83 3 l38 -6 -5 -66 c-4 -41
-3 -58 3 -46 4 11 8 42 7 70 -1 43 -4 50 -26 56 -56 16 -94 9 -122 -20z m103
-23 c1 -7 3 -26 4 -43 2 -16 2 -40 -1 -53 -4 -21 -9 -23 -62 -20 l-57 3 -3 49
c-2 27 -1 54 1 60 6 16 117 20 118 4z"/>
<path d="M2808 123 c-12 -23 -1 -48 20 -51 20 -3 23 0 20 25 -3 26 -31 45 -40
26z"/>
<path d="M3097 203 c-12 -12 -8 -148 5 -161 12 -12 106 -16 146 -6 19 6 22 13
22 61 0 30 -7 67 -15 83 -15 29 -18 30 -84 30 -37 0 -71 -3 -74 -7z m133 -13
c0 -6 -29 -10 -66 -10 -41 0 -63 4 -59 10 3 6 33 10 66 10 33 0 59 -4 59 -10z
m25 -80 l0 -55 -77 -3 -78 -3 0 61 0 61 78 -3 77 -3 0 -55z"/>
<path d="M3218 103 c7 -3 16 -2 19 1 4 3 -2 6 -13 5 -11 0 -14 -3 -6 -6z"/>
<path d="M463 189 c-14 -5 -23 -17 -23 -29 0 -11 -4 -20 -10 -20 -5 0 -10 -7
-10 -15 0 -8 5 -15 10 -15 6 0 10 -13 10 -29 0 -16 6 -31 15 -35 12 -4 15 3
15 29 0 23 5 34 17 37 16 3 16 4 0 20 -21 21 -22 38 -2 38 16 0 21 16 8 23 -5
3 -18 1 -30 -4z"/>
<path d="M724 187 c-3 -8 -4 -43 -2 -78 l3 -64 75 0 75 0 0 75 0 75 -73 3
c-55 2 -74 -1 -78 -11z m46 -27 c0 -5 -4 -10 -9 -10 -6 0 -13 5 -16 10 -3 6 1
10 9 10 9 0 16 -4 16 -10z m-2 -57 c-2 -21 -7 -38 -13 -38 -5 0 -11 17 -12 38
-1 26 3 37 14 37 10 0 13 -10 11 -37z m83 25 c5 -47 3 -62 -8 -65 -8 -3 -13 5
-13 21 0 34 -18 43 -22 9 -5 -41 -28 -42 -28 0 0 41 1 42 40 45 18 1 30 -3 31
-10z"/>
<path d="M4170 189 l-35 -6 33 -2 c40 -1 43 -21 2 -21 -40 0 -38 -18 3 -23
l32 -3 -33 -9 c-30 -7 -33 -11 -27 -34 7 -28 21 -41 46 -41 20 0 45 28 34 38
-4 4 -10 1 -12 -5 -8 -22 -43 -15 -43 7 0 13 7 20 19 20 10 0 21 7 25 15 3 8
12 15 21 15 20 0 19 16 -2 25 -17 7 -16 8 2 14 18 7 17 8 -5 12 -14 3 -41 2
-60 -2z"/>
<path d="M1192 158 c-7 -7 -12 -38 -12 -70 0 -45 4 -60 16 -65 26 -10 41 20
38 76 -4 70 -15 86 -42 59z m28 -62 c0 -30 -4 -58 -10 -61 -11 -7 -11 -7 -14
63 -2 38 1 52 11 52 9 0 13 -16 13 -54z"/>
<path d="M1050 106 c-15 -15 -12 -62 6 -77 14 -11 18 -11 29 4 7 10 12 26 10
35 -2 9 -4 24 -4 33 -1 18 -25 21 -41 5z m30 -35 c0 -37 -16 -49 -24 -18 -9
35 -7 47 9 47 10 0 15 -10 15 -29z"/>
</g>
</svg>
